HIERARCHY
ROOT Hips
{
	OFFSET 0.000000 88.474243 0.000000
	CHANNELS 6 Xposition Yposition Zposition Zrotation Yrotation Xrotation 
	JOINT Hips_Spine
	{
		OFFSET 0.000000 0.000000 0.000000
		CHANNELS 3 Zrotation Yrotation Xrotation
		JOINT Spine
		{
			OFFSET 0.005100 8.711998 -0.691000
			CHANNELS 3 Zrotation Yrotation Xrotation
			JOINT Spine1
			{
				OFFSET -0.009200 8.660301 -1.275000
				CHANNELS 3 Zrotation Yrotation Xrotation
				JOINT Spine2
				{
					OFFSET 0.006300 9.852501 -1.857000
					CHANNELS 3 Zrotation Yrotation Xrotation
					JOINT Spine2_Neck
					{
						OFFSET 0.000000 0.000000 0.000000
						CHANNELS 3 Zrotation Yrotation Xrotation
						JOINT Neck
						{
							OFFSET 0.016300 11.420799 -0.263300
							CHANNELS 3 Zrotation Yrotation Xrotation
							End Site #name: Head
							{
								OFFSET -0.019200 9.262405 2.362500
							}
						}
					}
					JOINT Spine2_LeftShoulder
					{
						OFFSET 0.000000 0.000000 0.000000
						CHANNELS 3 Zrotation Yrotation Xrotation
						JOINT LeftShoulder
						{
							OFFSET 5.616900 6.732201 -0.345700
							CHANNELS 3 Zrotation Yrotation Xrotation
							JOINT LeftArm
							{
								OFFSET 10.664888 -0.183372 -2.440700
								CHANNELS 3 Zrotation Yrotation Xrotation
								JOINT LeftForeArm
								{
									OFFSET 27.459126 0.000000 0.000000
									CHANNELS 3 Zrotation Yrotation Xrotation
									End Site #name: LeftHand
									{
										OFFSET 21.306858 0.000000 0.000000
									}
								}
							}
						}
					}
					JOINT Spine2_RightShoulder
					{
						OFFSET 0.000000 0.000000 0.000000
						CHANNELS 3 Zrotation Yrotation Xrotation
						JOINT RightShoulder
						{
							OFFSET -5.580300 6.737503 -0.344400
							CHANNELS 3 Zrotation Yrotation Xrotation
							JOINT RightArm
							{
								OFFSET -10.679335 -0.188484 -2.383900
								CHANNELS 3 Zrotation Yrotation Xrotation
								JOINT RightForeArm
								{
									OFFSET -27.503529 0.000000 0.000000
									CHANNELS 3 Zrotation Yrotation Xrotation
									End Site #name: RightHand
									{
										OFFSET -21.306808 0.000000 0.000000
									}
								}
							}
						}
					}
				}
			}
		}
	}
	JOINT Hips_LeftUpLeg
	{
		OFFSET 0.000000 0.000000 0.000000
		CHANNELS 3 Zrotation Yrotation Xrotation
		JOINT LeftUpLeg
		{
			OFFSET 6.857700 -6.739601 0.312100
			CHANNELS 3 Zrotation Yrotation Xrotation
			JOINT LeftLeg
			{
				OFFSET -0.367590 -34.731552 -4.572400
				CHANNELS 3 Zrotation Yrotation Xrotation
				End Site #name: LeftFoot
				{
					OFFSET 0.367590 -34.656704 -6.067400
				}
			}
		}
	}
	JOINT Hips_RightUpLeg
	{
		OFFSET 0.000000 0.000000 0.000000
		CHANNELS 3 Zrotation Yrotation Xrotation
		JOINT RightUpLeg
		{
			OFFSET -6.876100 -6.733299 0.301000
			CHANNELS 3 Zrotation Yrotation Xrotation
			JOINT RightLeg
			{
				OFFSET 0.347353 -34.795158 -4.515900
				CHANNELS 3 Zrotation Yrotation Xrotation
				End Site #name: RightFoot
				{
					OFFSET -0.347353 -34.589367 -6.070300
				}
			}
		}
	}
}
MOTION
Frames: 18
Frame Time: 0.041667
1.431446 0.250084 0.844320 -1.490639 40.574879 -8.282438 -0.000000 0.000000 0.000000 -1.101012 -0.958285 -4.763825 2.463664 -1.740450 -3.141976 0.000000 0.000000 0.000000 2.827098 -1.331728 -3.852217 2.317669 -4.265310 -2.470715 1.867005 -1.428449 -3.539016 -20.229906 0.140116 8.026695 -52.763734 11.628670 6.558008 -0.829267 -22.583720 7.194954 1.891712 -1.478953 -1.636661 8.781046 7.404442 1.689747 60.254532 0.823997 -6.713224 0.572137 45.259088 -0.591285 0.000000 -0.000000 -0.000000 -9.625469 20.250296 -2.760584 -2.383510 0.780355 21.449483 0.000000 0.000000 0.000000 -5.074588 1.623022 -19.344722 6.515602 4.069528 17.823291 
1.280579 0.222690 1.029472 -2.420196 42.662285 -9.113258 -0.000000 0.000000 0.000000 -0.260332 -0.579700 -5.176172 2.629231 -1.748879 -3.107817 0.000000 0.000000 0.000000 2.960027 -1.269959 -3.798360 2.265630 -4.214636 -2.338620 2.048977 -1.388139 -3.454362 -19.717385 0.291735 8.078866 -53.680947 12.151334 6.197818 -0.916920 -23.202978 7.165275 2.062743 -1.423235 -1.636874 9.049901 7.540523 1.742858 60.113716 0.843354 -6.525922 0.575303 45.299867 -0.596057 0.000000 -0.000000 -0.000000 -8.698154 20.643734 -2.196505 -2.643050 0.530076 21.174756 0.000000 0.000000 0.000000 -4.267087 1.559418 -19.458887 6.151377 2.582767 17.749810 
1.161338 0.191944 1.221155 -3.267966 44.102449 -9.883876 -0.000000 0.000000 0.000000 0.538429 -0.247015 -5.371771 2.768356 -1.757083 -3.072823 0.000000 0.000000 0.000000 3.072090 -1.211458 -3.745617 2.198705 -4.216273 -2.160649 2.201834 -1.354362 -3.379874 -19.267664 0.428322 8.137458 -54.508449 12.649961 5.823583 -0.982131 -23.726058 7.141728 2.207140 -1.371378 -1.635666 9.287662 7.668150 1.784936 59.987459 0.886546 -6.267890 0.584284 45.322864 -0.599320 0.000000 -0.000000 -0.000000 -7.743399 20.897601 -1.614244 -2.953327 0.297736 20.901305 0.000000 -0.000000 0.000000 -3.496789 1.517162 -19.565740 5.878598 1.486884 17.834877 
1.078367 0.161207 1.414957 -3.958342 45.048092 -10.530126 -0.000000 -0.000000 0.000000 1.257664 0.016533 -5.418704 2.884982 -1.759561 -3.029320 0.000000 0.000000 0.000000 3.164887 -1.154926 -3.689289 2.127243 -4.267560 -1.907769 2.328678 -1.325081 -3.307952 -18.879687 0.530735 8.182562 -55.276343 13.174152 5.464366 -1.038941 -24.177783 7.119573 2.330936 -1.324608 -1.630071 9.499537 7.776275 1.817156 59.890604 0.934398 -5.995528 0.593593 45.385060 -0.603260 0.000000 -0.000000 -0.000000 -6.836301 21.026670 -1.035739 -3.239981 0.169904 20.608680 0.000000 -0.000000 0.000000 -2.806803 1.552627 -19.670382 5.637114 0.560600 18.055328 
1.037857 0.133345 1.606803 -4.433133 45.538567 -11.005781 -0.000000 -0.000000 0.000000 1.818181 0.197111 -5.397342 2.985001 -1.757130 -2.976838 0.000000 0.000000 0.000000 3.243181 -1.103002 -3.629970 2.055363 -4.345084 -1.552309 2.436745 -1.299136 -3.232122 -18.527011 0.583366 8.197505 -55.950070 13.624478 5.176924 -1.104950 -24.623293 7.103032 2.435843 -1.284691 -1.618555 9.705422 7.865324 1.845370 59.826998 0.935936 -5.684438 0.605549 45.479773 -0.605771 0.000000 -0.000000 -0.000000 -6.082025 21.053899 -0.526998 -3.476491 0.137099 20.417152 0.000000 -0.000000 0.000000 -2.229732 1.684722 -19.770442 5.425878 -0.325939 18.382617 
1.046195 0.107920 1.790134 -4.697410 45.472035 -11.306476 -0.000000 -0.000000 0.000000 2.182858 0.284774 -5.357336 3.067659 -1.751947 -2.904418 0.000000 0.000000 0.000000 3.309290 -1.052546 -3.553539 1.967309 -4.427912 -1.102544 2.530977 -1.274139 -3.140827 -18.198582 0.592828 8.167575 -56.564567 14.059234 4.925136 -1.171355 -24.952792 7.082737 2.521991 -1.247229 -1.596725 9.926359 7.938069 1.869415 59.751128 0.938282 -5.369632 0.620976 45.568164 -0.607440 0.000000 -0.000000 -0.000000 -5.457314 20.934805 -0.189510 -3.724069 0.090468 20.484347 0.000000 -0.000000 0.000000 -1.784837 1.877062 -19.867986 5.232813 -1.193649 18.825128 
1.105350 0.085965 1.960075 -4.753236 44.749684 -11.440701 -0.000000 -0.000000 0.000000 2.480871 0.271534 -5.267439 3.137944 -1.740381 -2.815750 0.000000 0.000000 0.000000 3.365112 -1.002447 -3.456763 1.896705 -4.415329 -0.714228 2.616015 -1.245599 -3.026847 -17.924503 0.549328 8.094231 -57.108985 14.483665 4.706253 -1.236334 -25.178640 7.056403 2.595391 -1.210115 -1.563779 10.161043 7.991201 1.885327 59.657817 0.970321 -5.100493 0.639462 45.691702 -0.608196 0.000000 -0.000000 -0.000000 -4.967181 20.615549 -0.046481 -3.962412 -0.004854 20.859392 0.000000 -0.000000 0.000000 -1.457496 2.098302 -19.931829 5.083589 -1.909619 19.374585 
1.219670 0.067737 2.113469 -4.615279 43.359515 -11.424714 -0.000000 -0.000000 0.000000 2.726202 0.176834 -5.132861 3.196634 -1.727016 -2.710057 0.000000 0.000000 0.000000 3.412138 -0.956506 -3.347069 1.849137 -4.340379 -0.366084 2.694718 -1.217709 -2.897820 -17.711474 0.476039 7.992686 -57.567841 14.875254 4.515701 -1.299110 -25.332583 7.017979 2.657660 -1.174768 -1.519771 10.376880 8.029146 1.891836 59.542139 1.056689 -4.832463 0.657554 45.802207 -0.608162 0.000000 -0.000000 -0.000000 -4.626363 20.087038 -0.070543 -4.132708 -0.076215 21.486697 0.000000 -0.000000 0.000000 -1.208383 2.339923 -19.932515 5.002915 -2.347654 20.004340 
1.396734 0.052820 2.251137 -4.347220 41.369693 -11.317027 -0.000000 -0.000000 0.000000 2.934935 0.000694 -4.969106 3.240712 -1.711450 -2.590449 0.000000 0.000000 0.000000 3.449813 -0.916011 -3.226244 1.828085 -4.248791 -0.040494 2.765103 -1.195387 -2.766915 -17.577141 0.386106 7.877273 -57.941946 15.154658 4.357790 -1.364617 -25.443402 6.985895 2.709910 -1.145908 -1.470845 10.567123 8.062215 1.895477 59.420414 1.142852 -4.585034 0.678755 45.986772 -0.608748 0.000000 -0.000000 -0.000000 -4.461437 19.418045 -0.152334 -4.249547 -0.123624 22.143131 0.000000 -0.000000 0.000000 -1.020485 2.601202 -19.886522 5.006258 -2.490673 20.720988 
1.634445 0.036232 2.370378 -3.960389 38.997933 -11.109073 -0.000000 -0.000000 0.000000 3.105157 -0.225550 -4.785154 3.275155 -1.695087 -2.469103 0.000000 0.000000 0.000000 3.473263 -0.882703 -3.109657 1.841635 -4.103661 0.212451 2.824398 -1.178447 -2.644039 -17.524048 0.304711 7.764708 -58.226082 15.337783 4.291593 -1.427023 -25.484766 6.953634 2.750615 -1.125446 -1.421056 10.711170 8.101879 1.901054 59.297522 1.243002 -4.339761 0.702574 46.209657 -0.603471 0.000000 -0.000000 -0.000000 -4.441162 18.736380 -0.208653 -4.343094 -0.171654 22.768012 0.000000 -0.000000 0.000000 -0.874893 2.922421 -19.823020 5.088512 -2.396945 21.520722 
1.931974 0.013608 2.468937 -3.520752 36.373146 -10.870021 -0.000000 -0.000000 0.000000 3.232019 -0.474562 -4.620727 3.304932 -1.681397 -2.360591 0.000000 0.000000 0.000000 3.492778 -0.854988 -2.986922 1.894404 -3.925301 0.383484 2.876332 -1.165759 -2.528181 -17.548905 0.236055 7.663762 -58.420869 15.406666 4.304092 -1.491975 -25.448155 6.925308 2.781344 -1.106881 -1.370088 10.783977 8.176178 1.911209 59.207231 1.297161 -4.086942 0.724826 46.355510 -0.598462 0.000000 -0.000000 -0.000000 -4.580779 18.003867 -0.306839 -4.463851 -0.241073 23.396490 0.000000 -0.000000 0.000000 -0.777226 3.310818 -19.768967 5.218222 -2.192518 22.332517 
2.287490 -0.015765 2.548685 -3.034633 33.512981 -10.590906 -0.000000 -0.000000 0.000000 3.307017 -0.740734 -4.470349 3.330900 -1.673839 -2.257096 0.000000 0.000000 0.000000 3.505509 -0.828715 -2.869140 1.910907 -3.737631 0.537252 2.922284 -1.159823 -2.428375 -17.642366 0.182124 7.571559 -58.514888 15.354584 4.448807 -1.561882 -25.342614 6.904687 2.808449 -1.098412 -1.322904 10.778933 8.214781 1.910763 59.141853 1.338448 -3.830592 0.744879 46.405623 -0.594521 0.000000 -0.000000 -0.000000 -4.900404 17.220311 -0.468241 -4.601236 -0.372254 24.128041 0.000000 -0.000000 0.000000 -0.741920 3.737069 -19.724360 5.428247 -1.805082 23.117417 
2.692148 -0.048717 2.611003 -2.526721 30.555577 -10.273179 -0.000000 -0.000000 0.000000 3.347477 -1.034981 -4.342647 3.351257 -1.668793 -2.169955 0.000000 0.000000 0.000000 3.513850 -0.809260 -2.772024 1.888310 -3.594938 0.683381 2.963463 -1.157065 -2.349308 -17.802220 0.142244 7.466043 -58.468840 15.223454 4.638344 -1.632277 -25.226263 6.861258 2.829487 -1.094952 -1.284658 10.703303 8.241545 1.905368 59.088606 1.343813 -3.624951 0.762906 46.367236 -0.588912 0.000000 -0.000000 -0.000000 -5.416853 16.380572 -0.726029 -4.740895 -0.542711 24.999130 0.000000 -0.000000 0.000000 -0.798373 4.182076 -19.741878 5.712128 -1.233911 23.884633 
3.131217 -0.086226 2.655701 -2.080809 27.982752 -9.994729 -0.000000 -0.000000 0.000000 3.371221 -1.251333 -4.230513 3.374848 -1.666518 -2.108973 0.000000 0.000000 0.000000 3.523914 -0.799842 -2.696448 1.834110 -3.511544 0.816520 2.999218 -1.157412 -2.295526 -17.993026 0.129295 7.343633 -58.362018 15.109139 4.772581 -1.701964 -25.072747 6.799917 2.849735 -1.097801 -1.259375 10.549532 8.223982 1.894077 59.060427 1.289564 -3.471084 0.778989 46.289689 -0.580514 0.000000 -0.000000 -0.000000 -6.015196 15.553050 -1.056779 -4.955378 -0.767029 25.966516 0.000000 -0.000000 0.000000 -0.945812 4.590868 -19.776939 6.076156 -0.467809 24.666680 
3.595784 -0.126638 2.685462 -1.722620 25.977168 -9.776339 -0.000000 -0.000000 0.000000 3.398982 -1.360605 -4.130558 3.402483 -1.660319 -2.064637 0.000000 0.000000 0.000000 3.538424 -0.790242 -2.636284 1.778328 -3.393615 0.935812 3.034929 -1.152274 -2.256502 -18.237758 0.138630 7.227738 -58.116337 15.016959 4.884417 -1.781337 -25.046458 6.695173 2.873672 -1.099423 -1.243872 10.360231 8.224147 1.887832 59.035460 1.174669 -3.412866 0.796155 46.232234 -0.566486 0.000000 -0.000000 -0.000000 -6.658273 14.795539 -1.403626 -5.158394 -1.170565 26.909566 0.000000 -0.000000 0.000000 -1.197250 4.900785 -19.817488 6.502245 0.422819 25.485495 
4.077188 -0.164228 2.705457 -1.470889 24.501099 -9.636824 -0.000000 -0.000000 0.000000 3.418802 -1.452209 -4.029179 3.441798 -1.650853 -2.039224 0.000000 0.000000 0.000000 3.558309 -0.778944 -2.578755 1.699564 -3.330916 1.053455 3.069531 -1.140836 -2.218969 -18.492244 0.144849 7.126438 -57.799704 14.891446 4.944057 -1.817600 -24.966662 6.543891 2.906137 -1.096769 -1.233933 10.170235 8.254993 1.891474 59.014384 1.002499 -3.442914 0.814999 46.207520 -0.546920 0.000000 -0.000000 -0.000000 -7.303811 14.241062 -1.712354 -5.302035 -1.687607 27.807070 0.000000 -0.000000 0.000000 -1.498468 5.025146 -19.860582 6.960614 1.375617 26.392967 
4.575484 -0.201071 2.721814 -1.298322 23.495073 -9.566451 -0.000000 -0.000000 0.000000 3.368521 -1.538728 -3.959095 3.492572 -1.638936 -2.021247 0.000000 0.000000 0.000000 3.585141 -0.767046 -2.527233 1.604743 -3.308174 1.155514 3.112601 -1.131443 -2.188627 -18.688717 0.116802 7.034566 -57.442078 14.831077 4.914374 -1.797384 -24.900696 6.359425 2.948237 -1.089752 -1.225985 10.012153 8.341006 1.911467 58.997994 0.766628 -3.577927 0.833834 46.240648 -0.518924 0.000000 -0.000000 -0.000000 -7.959323 13.866789 -2.013393 -5.349269 -2.171256 28.591965 0.000000 -0.000000 0.000000 -1.846948 4.941457 -19.883120 7.373589 2.249691 27.289450 
5.087183 -0.239613 2.738010 -1.149039 22.953389 -9.523326 -0.000000 -0.000000 0.000000 3.251826 -1.625014 -3.854508 3.548375 -1.625299 -1.996808 0.000000 0.000000 0.000000 3.615709 -0.753184 -2.486027 1.489786 -3.312522 1.242910 3.156576 -1.115723 -2.154440 -18.818805 0.033432 6.965751 -57.113588 14.917359 4.782163 -1.752348 -24.819919 6.201303 2.996840 -1.077422 -1.222364 9.917300 8.499773 1.946053 58.986733 0.506417 -3.805574 0.851085 46.435582 -0.494067 0.000000 -0.000000 -0.000000 -8.623149 13.663082 -2.309865 -5.323652 -2.582818 29.211292 0.000000 -0.000000 0.000000 -2.257414 4.678795 -19.870339 7.708475 2.965147 28.058605 
